<?xml version="1.0" encoding="UTF-8"?>
<svg xmlns="http://www.w3.org/2000/svg" xmlns:xlink="http://www.w3.org/1999/xlink" width="32px" height="22px" viewBox="0 0 31 22" version="1.1">
<g id="surface1">
<path style=" stroke:none;fill-rule:nonzero;fill:rgb(0%,0%,0%);fill-opacity:1;" d="M 14.886719 3.441406 C 13.339844 3.691406 12.089844 4.886719 11.777344 6.421875 C 11.691406 6.832031 11.699219 7.582031 11.789062 7.992188 C 12.042969 9.152344 12.804688 10.105469 13.882812 10.617188 C 14.320312 10.828125 14.730469 10.925781 15.269531 10.949219 C 15.941406 10.972656 16.488281 10.859375 17.078125 10.574219 C 17.207031 10.515625 17.324219 10.46875 17.34375 10.46875 C 17.363281 10.46875 17.914062 10.710938 18.578125 11.007812 C 19.511719 11.429688 19.792969 11.539062 19.847656 11.515625 C 19.882812 11.496094 19.914062 11.457031 19.914062 11.429688 C 19.914062 11.40625 19.664062 10.8125 19.355469 10.113281 L 18.800781 8.847656 L 18.949219 8.40625 C 19.265625 7.457031 19.234375 6.582031 18.847656 5.679688 C 18.65625 5.234375 18.445312 4.921875 18.0625 4.535156 C 17.570312 4.03125 17.058594 3.734375 16.371094 3.539062 C 16.109375 3.464844 15.929688 3.445312 15.519531 3.433594 C 15.234375 3.425781 14.953125 3.429688 14.886719 3.441406 Z M 16.023438 3.734375 C 16.796875 3.867188 17.386719 4.191406 17.949219 4.789062 C 18.25 5.109375 18.394531 5.324219 18.578125 5.714844 C 18.964844 6.546875 19.011719 7.539062 18.703125 8.355469 C 18.503906 8.886719 18.472656 8.738281 19.035156 10 C 19.3125 10.617188 19.53125 11.132812 19.523438 11.136719 C 19.515625 11.140625 19.019531 10.929688 18.414062 10.660156 L 17.320312 10.164062 L 17.125 10.277344 C 16.605469 10.570312 16.070312 10.703125 15.40625 10.699219 C 14.816406 10.699219 14.382812 10.597656 13.878906 10.34375 C 12.671875 9.726562 11.953125 8.542969 11.960938 7.164062 C 11.964844 6.246094 12.273438 5.46875 12.902344 4.789062 C 13.707031 3.917969 14.863281 3.527344 16.023438 3.734375 Z M 16.023438 3.734375 "/>
<path style=" stroke:none;fill-rule:nonzero;fill:rgb(0%,0%,0%);fill-opacity:1;" d="M 15.316406 6.589844 C 15.1875 6.613281 14.992188 6.773438 14.925781 6.902344 C 14.792969 7.164062 14.921875 7.582031 15.179688 7.707031 C 15.691406 7.953125 16.226562 7.4375 15.984375 6.925781 C 15.863281 6.679688 15.59375 6.542969 15.316406 6.589844 Z M 15.316406 6.589844 "/>
<path style=" stroke:none;fill-rule:nonzero;fill:rgb(0%,0%,0%);fill-opacity:1;" d="M 16.925781 6.621094 C 16.558594 6.757812 16.425781 7.246094 16.675781 7.539062 C 17.050781 7.996094 17.773438 7.710938 17.71875 7.128906 C 17.675781 6.726562 17.300781 6.484375 16.925781 6.621094 Z M 16.925781 6.621094 "/>
<path style=" stroke:none;fill-rule:nonzero;fill:rgb(0%,0%,0%);fill-opacity:1;" d="M 13.476562 6.675781 C 13.191406 6.851562 13.097656 7.175781 13.246094 7.464844 C 13.355469 7.675781 13.527344 7.78125 13.757812 7.78125 C 14.222656 7.78125 14.496094 7.308594 14.269531 6.894531 C 14.117188 6.625 13.726562 6.515625 13.476562 6.675781 Z M 13.476562 6.675781 "/>
<path style=" stroke:none;fill-rule:nonzero;fill:rgb(0%,0%,0%);fill-opacity:1;" d="M 4.789062 14.753906 C 4.796875 14.78125 5.019531 15.316406 5.285156 15.9375 L 5.765625 17.070312 L 6.289062 17.070312 L 6.441406 16.703125 C 6.527344 16.503906 6.753906 15.972656 6.945312 15.519531 L 7.296875 14.707031 L 6.839844 14.707031 L 6.53125 15.449219 C 6.03125 16.625 6.042969 16.605469 6.007812 16.542969 C 5.988281 16.511719 5.800781 16.085938 5.59375 15.597656 L 5.210938 14.707031 L 4.996094 14.707031 C 4.835938 14.707031 4.78125 14.71875 4.789062 14.753906 Z M 4.789062 14.753906 "/>
<path style=" stroke:none;fill-rule:nonzero;fill:rgb(0%,0%,0%);fill-opacity:1;" d="M 7.601562 14.894531 L 7.601562 15.082031 L 9.308594 15.082031 L 9.308594 14.707031 L 7.601562 14.707031 Z M 7.601562 14.894531 "/>
<path style=" stroke:none;fill-rule:nonzero;fill:rgb(0%,0%,0%);fill-opacity:1;" d="M 9.902344 15.886719 L 9.902344 17.070312 L 10.304688 17.070312 L 10.316406 16.722656 C 10.328125 16.375 10.328125 16.375 10.425781 16.363281 C 10.515625 16.355469 10.539062 16.375 10.625 16.558594 C 10.785156 16.910156 11.089844 17.105469 11.46875 17.109375 L 11.679688 17.109375 L 11.679688 16.921875 C 11.679688 16.738281 11.675781 16.734375 11.578125 16.734375 C 11.40625 16.734375 11.226562 16.664062 11.117188 16.554688 C 10.980469 16.425781 10.988281 16.371094 11.136719 16.34375 C 11.523438 16.265625 11.816406 15.878906 11.785156 15.476562 C 11.757812 15.183594 11.605469 14.945312 11.351562 14.8125 C 11.15625 14.710938 11.140625 14.707031 10.527344 14.707031 L 9.902344 14.707031 Z M 11.109375 15.140625 C 11.371094 15.269531 11.457031 15.546875 11.304688 15.765625 C 11.1875 15.929688 11.027344 15.980469 10.640625 15.980469 L 10.308594 15.980469 L 10.308594 15.558594 C 10.308594 15.320312 10.320312 15.121094 10.335938 15.109375 C 10.386719 15.050781 10.984375 15.082031 11.109375 15.140625 Z M 11.109375 15.140625 "/>
<path style=" stroke:none;fill-rule:nonzero;fill:rgb(0%,0%,0%);fill-opacity:1;" d="M 12.273438 14.894531 L 12.273438 15.082031 L 12.863281 15.082031 C 13.191406 15.082031 13.5 15.101562 13.558594 15.121094 C 13.769531 15.203125 13.824219 15.429688 13.664062 15.589844 C 13.574219 15.683594 13.5625 15.683594 12.921875 15.683594 L 12.273438 15.683594 L 12.273438 17.074219 L 13.050781 17.0625 L 13.824219 17.050781 L 13.96875 16.933594 C 14.046875 16.871094 14.140625 16.761719 14.171875 16.691406 C 14.292969 16.457031 14.242188 16.105469 14.070312 15.902344 C 14.023438 15.855469 14.027344 15.824219 14.09375 15.695312 C 14.207031 15.480469 14.179688 15.167969 14.03125 14.984375 C 13.828125 14.726562 13.753906 14.707031 12.972656 14.707031 L 12.273438 14.707031 Z M 13.746094 16.175781 C 13.921875 16.34375 13.816406 16.632812 13.5625 16.675781 C 13.496094 16.6875 13.273438 16.695312 13.070312 16.6875 L 12.699219 16.675781 L 12.6875 16.382812 L 12.679688 16.09375 L 13.167969 16.09375 C 13.621094 16.09375 13.667969 16.101562 13.746094 16.175781 Z M 13.746094 16.175781 "/>
<path style=" stroke:none;fill-rule:nonzero;fill:rgb(0%,0%,0%);fill-opacity:1;" d="M 14.914062 15.863281 C 14.648438 16.496094 14.425781 17.023438 14.425781 17.039062 C 14.425781 17.058594 14.519531 17.070312 14.640625 17.070312 L 14.851562 17.070312 L 15.238281 16.167969 C 15.449219 15.671875 15.632812 15.261719 15.644531 15.253906 C 15.65625 15.246094 15.839844 15.652344 16.054688 16.15625 L 16.445312 17.070312 L 16.660156 17.070312 C 16.777344 17.070312 16.871094 17.058594 16.871094 17.039062 C 16.871094 17.023438 16.652344 16.496094 16.382812 15.863281 L 15.890625 14.710938 L 15.648438 14.707031 L 15.40625 14.707031 Z M 14.914062 15.863281 "/>
<path style=" stroke:none;fill-rule:nonzero;fill:rgb(0%,0%,0%);fill-opacity:1;" d="M 18.015625 15.691406 L 18.003906 16.675781 L 17.496094 16.6875 L 16.984375 16.699219 L 16.984375 17.070312 L 18.429688 17.070312 L 18.429688 14.707031 L 18.023438 14.707031 Z M 18.015625 15.691406 "/>
<path style=" stroke:none;fill-rule:nonzero;fill:rgb(0%,0%,0%);fill-opacity:1;" d="M 19.023438 14.894531 L 19.023438 15.082031 L 19.429688 15.082031 L 19.429688 14.707031 L 19.023438 14.707031 Z M 19.023438 14.894531 "/>
<path style=" stroke:none;fill-rule:nonzero;fill:rgb(0%,0%,0%);fill-opacity:1;" d="M 19.914062 14.863281 C 19.914062 15.019531 19.941406 15.058594 20.582031 15.8125 C 20.945312 16.246094 21.246094 16.625 21.246094 16.644531 C 21.246094 16.683594 21.09375 16.695312 20.617188 16.695312 L 19.988281 16.695312 L 19.988281 17.070312 L 21.914062 17.070312 L 21.914062 16.910156 C 21.910156 16.757812 21.882812 16.714844 21.234375 15.945312 C 20.855469 15.503906 20.558594 15.125 20.566406 15.113281 C 20.578125 15.09375 20.867188 15.082031 21.214844 15.082031 L 21.839844 15.082031 L 21.839844 14.707031 L 19.914062 14.707031 Z M 19.914062 14.863281 "/>
<path style=" stroke:none;fill-rule:nonzero;fill:rgb(0%,0%,0%);fill-opacity:1;" d="M 22.359375 14.894531 L 22.359375 15.082031 L 24.066406 15.082031 L 24.066406 14.707031 L 22.359375 14.707031 Z M 22.359375 14.894531 "/>
<path style=" stroke:none;fill-rule:nonzero;fill:rgb(0%,0%,0%);fill-opacity:1;" d="M 24.660156 15.886719 L 24.660156 17.070312 L 25.0625 17.070312 L 25.085938 16.375 L 25.1875 16.363281 C 25.277344 16.355469 25.296875 16.371094 25.359375 16.515625 C 25.519531 16.890625 25.835938 17.109375 26.226562 17.109375 L 26.4375 17.109375 L 26.4375 16.738281 L 26.230469 16.714844 C 26.078125 16.695312 25.992188 16.660156 25.898438 16.574219 C 25.832031 16.515625 25.773438 16.445312 25.773438 16.417969 C 25.773438 16.390625 25.84375 16.355469 25.929688 16.332031 C 26.65625 16.132812 26.773438 15.160156 26.109375 14.8125 C 25.917969 14.710938 25.898438 14.707031 25.285156 14.707031 L 24.660156 14.707031 Z M 25.867188 15.140625 C 26.132812 15.269531 26.214844 15.546875 26.066406 15.765625 C 25.945312 15.929688 25.785156 15.980469 25.402344 15.980469 L 25.066406 15.980469 L 25.066406 15.558594 C 25.066406 15.320312 25.078125 15.121094 25.09375 15.109375 C 25.144531 15.050781 25.742188 15.082031 25.867188 15.140625 Z M 25.867188 15.140625 "/>
<path style=" stroke:none;fill-rule:nonzero;fill:rgb(0%,0%,0%);fill-opacity:1;" d="M 19.023438 16.226562 L 19.023438 17.070312 L 19.429688 17.070312 L 19.429688 15.382812 L 19.023438 15.382812 Z M 19.023438 16.226562 "/>
<path style=" stroke:none;fill-rule:nonzero;fill:rgb(0%,0%,0%);fill-opacity:1;" d="M 7.601562 15.90625 L 7.601562 16.09375 L 9.121094 16.09375 L 9.121094 15.71875 L 7.601562 15.71875 Z M 7.601562 15.90625 "/>
<path style=" stroke:none;fill-rule:nonzero;fill:rgb(0%,0%,0%);fill-opacity:1;" d="M 22.359375 15.90625 L 22.359375 16.09375 L 23.878906 16.09375 L 23.878906 15.71875 L 22.359375 15.71875 Z M 22.359375 15.90625 "/>
<path style=" stroke:none;fill-rule:nonzero;fill:rgb(0%,0%,0%);fill-opacity:1;" d="M 7.601562 16.882812 L 7.601562 17.070312 L 9.308594 17.070312 L 9.308594 16.695312 L 7.601562 16.695312 Z M 7.601562 16.882812 "/>
<path style=" stroke:none;fill-rule:nonzero;fill:rgb(0%,0%,0%);fill-opacity:1;" d="M 22.359375 16.882812 L 22.359375 17.070312 L 24.066406 17.070312 L 24.066406 16.695312 L 22.359375 16.695312 Z M 22.359375 16.882812 "/>
</g>
</svg>
