<?xml version="1.0" standalone="no"?>
<!DOCTYPE svg PUBLIC "-//W3C//DTD SVG 20010904//EN"
 "http://www.w3.org/TR/2001/REC-SVG-20010904/DTD/svg10.dtd">
<svg version="1.0" xmlns="http://www.w3.org/2000/svg"
 width="836.000000pt" height="586.000000pt" viewBox="0 0 836.000000 586.000000"
 preserveAspectRatio="xMidYMid meet">

<g transform="translate(0.000000,586.000000) scale(0.100000,-0.100000)"
fill="#000000" stroke="none">
<path d="M4015 4943 c-418 -67 -755 -386 -839 -795 -23 -109 -21 -309 3 -418
69 -310 274 -564 565 -700 118 -56 229 -82 374 -88 181 -7 329 23 488 99 34
16 66 29 71 29 5 0 154 -65 333 -144 252 -113 328 -142 342 -135 10 5 18 15
18 22 0 7 -67 165 -150 351 l-150 338 40 117 c85 253 77 487 -27 727 -52 119
-109 202 -212 305 -133 134 -271 214 -456 266 -71 19 -119 25 -230 28 -77 2
-153 1 -170 -2z m306 -78 c209 -36 368 -122 520 -281 81 -86 120 -143 169
-247 104 -222 117 -487 34 -704 -54 -142 -62 -102 89 -438 75 -165 134 -302
132 -303 -2 -2 -136 55 -299 127 l-295 132 -53 -30 c-140 -78 -284 -114 -463
-113 -159 0 -276 27 -412 95 -326 164 -519 480 -517 847 1 245 84 452 253 633
218 233 529 337 842 282z"/>
<path d="M4130 4103 c-34 -6 -87 -48 -105 -83 -36 -70 -1 -181 69 -214 138
-66 282 72 217 208 -33 66 -106 102 -181 89z"/>
<path d="M4565 4095 c-99 -36 -135 -166 -68 -245 101 -121 296 -45 281 110
-11 107 -112 172 -213 135z"/>
<path d="M3634 4081 c-77 -47 -102 -134 -62 -211 30 -56 76 -84 138 -84 126 0
199 126 138 236 -41 72 -146 101 -214 59z"/>
<path d="M1292 1927 c2 -7 62 -149 133 -315 l130 -302 70 0 71 0 41 98 c23 53
84 195 136 315 l95 217 -61 0 -62 0 -84 -198 c-134 -313 -131 -308 -141 -291
-5 8 -56 121 -112 251 l-103 238 -58 0 c-43 0 -58 -3 -55 -13z"/>
<path d="M2050 1890 l0 -50 230 0 230 0 0 50 0 50 -230 0 -230 0 0 -50z"/>
<path d="M2670 1625 l0 -315 55 0 54 0 3 93 c3 92 3 92 30 95 24 3 30 -3 53
-52 44 -93 126 -145 228 -146 l57 0 0 50 c0 48 -1 50 -28 50 -46 0 -94 18
-124 47 -37 35 -35 49 5 57 105 20 184 124 175 231 -7 78 -48 141 -117 177
-52 27 -57 28 -222 28 l-169 0 0 -315z m326 199 c71 -34 94 -108 53 -166 -32
-44 -75 -58 -179 -58 l-90 0 0 113 c0 63 3 117 7 120 14 15 175 7 209 -9z"/>
<path d="M3310 1890 l0 -50 159 0 c88 0 172 -5 187 -10 57 -22 72 -83 29 -125
-24 -25 -27 -25 -200 -25 l-175 0 0 -186 0 -185 209 3 209 3 39 31 c21 17 46
46 55 65 32 62 19 156 -28 210 -12 13 -11 21 7 55 30 58 23 141 -17 190 -55
69 -75 74 -286 74 l-188 0 0 -50z m397 -342 c47 -44 19 -121 -49 -133 -18 -3
-78 -5 -133 -3 l-100 3 -3 78 -3 77 132 0 c122 0 135 -2 156 -22z"/>
<path d="M4022 1632 c-72 -169 -132 -310 -132 -314 0 -5 26 -8 58 -8 l57 0
104 240 c57 133 107 242 110 244 3 2 53 -106 111 -240 l105 -244 58 0 c31 0
57 3 57 8 0 4 -59 145 -132 314 l-133 307 -65 1 -65 0 -133 -308z"/>
<path d="M4858 1678 l-3 -263 -137 -3 -138 -3 0 -49 0 -50 195 0 195 0 0 315
0 315 -55 0 -55 0 -2 -262z"/>
<path d="M5130 1890 l0 -50 55 0 55 0 0 50 0 50 -55 0 -55 0 0 -50z"/>
<path d="M5370 1898 c0 -41 8 -52 180 -253 99 -115 180 -216 180 -222 0 -10
-41 -13 -170 -13 l-170 0 0 -50 0 -50 260 0 260 0 0 43 c-1 40 -9 52 -184 257
-102 118 -182 218 -180 222 3 5 81 8 175 8 l169 0 0 50 0 50 -260 0 -260 0 0
-42z"/>
<path d="M6030 1890 l0 -50 230 0 230 0 0 50 0 50 -230 0 -230 0 0 -50z"/>
<path d="M6650 1625 l0 -315 55 0 54 0 3 93 3 92 28 3 c24 3 29 -2 46 -40 43
-100 128 -158 234 -158 l57 0 0 49 0 49 -56 7 c-41 5 -64 14 -90 37 -18 16
-34 35 -34 42 0 7 19 17 43 23 196 53 227 312 48 405 -52 27 -57 28 -222 28
l-169 0 0 -315z m326 199 c71 -34 94 -108 53 -166 -32 -44 -75 -58 -179 -58
l-90 0 0 113 c0 63 3 117 7 120 14 15 175 7 209 -9z"/>
<path d="M5130 1535 l0 -225 55 0 55 0 0 225 0 225 -55 0 -55 0 0 -225z"/>
<path d="M2050 1620 l0 -50 205 0 205 0 0 50 0 50 -205 0 -205 0 0 -50z"/>
<path d="M6030 1620 l0 -50 205 0 205 0 0 50 0 50 -205 0 -205 0 0 -50z"/>
<path d="M2050 1360 l0 -50 230 0 230 0 0 50 0 50 -230 0 -230 0 0 -50z"/>
<path d="M6030 1360 l0 -50 230 0 230 0 0 50 0 50 -230 0 -230 0 0 -50z"/>
</g>
</svg>
